<mxfile host="app.diagrams.net" agent="Mozilla/5.0 (Windows NT 10.0; Win64; x64) AppleWebKit/537.36 (KHTML, like Gecko) Chrome/135.0.0.0 Safari/537.36" version="26.2.12">
  <diagram name="Halaman-1" id="lNLoMoLYB5kU6PuFZJTb">
    <mxGraphModel dx="1185" dy="746" grid="1" gridSize="10" guides="1" tooltips="1" connect="1" arrows="1" fold="1" page="1" pageScale="1" pageWidth="1654" pageHeight="1169" math="0" shadow="0">
      <root>
        <mxCell id="0" />
        <mxCell id="1" parent="0" />
        <mxCell id="7dJI4Exapxsd02uyXUpT-44" style="edgeStyle=orthogonalEdgeStyle;rounded=0;orthogonalLoop=1;jettySize=auto;html=1;entryX=0.5;entryY=0;entryDx=0;entryDy=0;" edge="1" parent="1" source="7dJI4Exapxsd02uyXUpT-6" target="7dJI4Exapxsd02uyXUpT-11">
          <mxGeometry relative="1" as="geometry">
            <mxPoint x="360" y="290" as="targetPoint" />
          </mxGeometry>
        </mxCell>
        <mxCell id="7dJI4Exapxsd02uyXUpT-6" value="inputNilai = x" style="shape=parallelogram;perimeter=parallelogramPerimeter;whiteSpace=wrap;html=1;fixedSize=1;fillColor=light-dark(#FFFFFF,#FFFFFF);fontColor=light-dark(#000000,#000000);" vertex="1" parent="1">
          <mxGeometry x="300" y="180" width="120" height="60" as="geometry" />
        </mxCell>
        <mxCell id="7dJI4Exapxsd02uyXUpT-47" style="edgeStyle=orthogonalEdgeStyle;rounded=0;orthogonalLoop=1;jettySize=auto;html=1;entryX=0;entryY=0.5;entryDx=0;entryDy=0;" edge="1" parent="1" source="7dJI4Exapxsd02uyXUpT-11" target="7dJI4Exapxsd02uyXUpT-21">
          <mxGeometry relative="1" as="geometry" />
        </mxCell>
        <mxCell id="7dJI4Exapxsd02uyXUpT-71" value="Tidak" style="edgeLabel;html=1;align=center;verticalAlign=middle;resizable=0;points=[];" vertex="1" connectable="0" parent="7dJI4Exapxsd02uyXUpT-47">
          <mxGeometry x="-0.0105" relative="1" as="geometry">
            <mxPoint as="offset" />
          </mxGeometry>
        </mxCell>
        <mxCell id="7dJI4Exapxsd02uyXUpT-49" style="edgeStyle=orthogonalEdgeStyle;rounded=0;orthogonalLoop=1;jettySize=auto;html=1;entryX=0.5;entryY=0;entryDx=0;entryDy=0;" edge="1" parent="1" source="7dJI4Exapxsd02uyXUpT-11" target="7dJI4Exapxsd02uyXUpT-18">
          <mxGeometry relative="1" as="geometry" />
        </mxCell>
        <mxCell id="7dJI4Exapxsd02uyXUpT-72" value="Iya" style="edgeLabel;html=1;align=center;verticalAlign=middle;resizable=0;points=[];" vertex="1" connectable="0" parent="7dJI4Exapxsd02uyXUpT-49">
          <mxGeometry x="-0.2526" y="-1" relative="1" as="geometry">
            <mxPoint as="offset" />
          </mxGeometry>
        </mxCell>
        <mxCell id="7dJI4Exapxsd02uyXUpT-11" value="0 &amp;lt;= x &amp;lt; 45" style="rhombus;whiteSpace=wrap;html=1;fillColor=light-dark(#FFFFFF,#FFFFFF);fontColor=light-dark(#000000,#0F0F0F);" vertex="1" parent="1">
          <mxGeometry x="310" y="310" width="100" height="100" as="geometry" />
        </mxCell>
        <mxCell id="7dJI4Exapxsd02uyXUpT-66" style="edgeStyle=orthogonalEdgeStyle;rounded=0;orthogonalLoop=1;jettySize=auto;html=1;entryX=0;entryY=0.5;entryDx=0;entryDy=0;" edge="1" parent="1" source="7dJI4Exapxsd02uyXUpT-18" target="7dJI4Exapxsd02uyXUpT-65">
          <mxGeometry relative="1" as="geometry">
            <Array as="points">
              <mxPoint x="360" y="670" />
            </Array>
          </mxGeometry>
        </mxCell>
        <mxCell id="7dJI4Exapxsd02uyXUpT-18" value="nilaiD = Need improvement" style="rounded=0;whiteSpace=wrap;html=1;fillColor=light-dark(#FFFFFF,#FFFFFF);fontColor=light-dark(#000000,#000000);" vertex="1" parent="1">
          <mxGeometry x="300" y="490" width="120" height="60" as="geometry" />
        </mxCell>
        <mxCell id="7dJI4Exapxsd02uyXUpT-48" style="edgeStyle=orthogonalEdgeStyle;rounded=0;orthogonalLoop=1;jettySize=auto;html=1;entryX=0;entryY=0.5;entryDx=0;entryDy=0;" edge="1" parent="1" source="7dJI4Exapxsd02uyXUpT-21" target="7dJI4Exapxsd02uyXUpT-22">
          <mxGeometry relative="1" as="geometry" />
        </mxCell>
        <mxCell id="7dJI4Exapxsd02uyXUpT-74" value="Tidak" style="edgeLabel;html=1;align=center;verticalAlign=middle;resizable=0;points=[];" vertex="1" connectable="0" parent="7dJI4Exapxsd02uyXUpT-48">
          <mxGeometry x="-0.1737" y="-1" relative="1" as="geometry">
            <mxPoint as="offset" />
          </mxGeometry>
        </mxCell>
        <mxCell id="7dJI4Exapxsd02uyXUpT-50" style="edgeStyle=orthogonalEdgeStyle;rounded=0;orthogonalLoop=1;jettySize=auto;html=1;entryX=0.5;entryY=0;entryDx=0;entryDy=0;" edge="1" parent="1" source="7dJI4Exapxsd02uyXUpT-21" target="7dJI4Exapxsd02uyXUpT-24">
          <mxGeometry relative="1" as="geometry" />
        </mxCell>
        <mxCell id="7dJI4Exapxsd02uyXUpT-73" value="Iya" style="edgeLabel;html=1;align=center;verticalAlign=middle;resizable=0;points=[];" vertex="1" connectable="0" parent="7dJI4Exapxsd02uyXUpT-50">
          <mxGeometry x="-0.2789" relative="1" as="geometry">
            <mxPoint as="offset" />
          </mxGeometry>
        </mxCell>
        <mxCell id="7dJI4Exapxsd02uyXUpT-21" value="45 &amp;lt;= x &amp;lt; 60" style="rhombus;whiteSpace=wrap;html=1;fillColor=light-dark(#FFFFFF,#FFFFFF);fontColor=light-dark(#000000,#0F0F0F);" vertex="1" parent="1">
          <mxGeometry x="480" y="310" width="100" height="100" as="geometry" />
        </mxCell>
        <mxCell id="7dJI4Exapxsd02uyXUpT-51" style="edgeStyle=orthogonalEdgeStyle;rounded=0;orthogonalLoop=1;jettySize=auto;html=1;entryX=0.5;entryY=0;entryDx=0;entryDy=0;" edge="1" parent="1" source="7dJI4Exapxsd02uyXUpT-22" target="7dJI4Exapxsd02uyXUpT-25">
          <mxGeometry relative="1" as="geometry" />
        </mxCell>
        <mxCell id="7dJI4Exapxsd02uyXUpT-79" value="Iya" style="edgeLabel;html=1;align=center;verticalAlign=middle;resizable=0;points=[];" vertex="1" connectable="0" parent="7dJI4Exapxsd02uyXUpT-51">
          <mxGeometry x="-0.3579" relative="1" as="geometry">
            <mxPoint as="offset" />
          </mxGeometry>
        </mxCell>
        <mxCell id="7dJI4Exapxsd02uyXUpT-52" style="edgeStyle=orthogonalEdgeStyle;rounded=0;orthogonalLoop=1;jettySize=auto;html=1;entryX=0;entryY=0.5;entryDx=0;entryDy=0;" edge="1" parent="1" source="7dJI4Exapxsd02uyXUpT-22" target="7dJI4Exapxsd02uyXUpT-56">
          <mxGeometry relative="1" as="geometry">
            <mxPoint x="820" y="360" as="targetPoint" />
          </mxGeometry>
        </mxCell>
        <mxCell id="7dJI4Exapxsd02uyXUpT-75" value="Tidak" style="edgeLabel;html=1;align=center;verticalAlign=middle;resizable=0;points=[];" vertex="1" connectable="0" parent="7dJI4Exapxsd02uyXUpT-52">
          <mxGeometry x="-0.3263" y="1" relative="1" as="geometry">
            <mxPoint as="offset" />
          </mxGeometry>
        </mxCell>
        <mxCell id="7dJI4Exapxsd02uyXUpT-22" value="60 &amp;lt;= x &amp;lt; 85" style="rhombus;whiteSpace=wrap;html=1;fillColor=light-dark(#FFFFFF,#FFFFFF);fontColor=light-dark(#000000,#0F0F0F);" vertex="1" parent="1">
          <mxGeometry x="660" y="310" width="100" height="100" as="geometry" />
        </mxCell>
        <mxCell id="7dJI4Exapxsd02uyXUpT-67" style="edgeStyle=orthogonalEdgeStyle;rounded=0;orthogonalLoop=1;jettySize=auto;html=1;entryX=0.5;entryY=0;entryDx=0;entryDy=0;" edge="1" parent="1" source="7dJI4Exapxsd02uyXUpT-24" target="7dJI4Exapxsd02uyXUpT-65">
          <mxGeometry relative="1" as="geometry" />
        </mxCell>
        <mxCell id="7dJI4Exapxsd02uyXUpT-24" value="nilaiC = Keep Practicing" style="rounded=0;whiteSpace=wrap;html=1;fillColor=light-dark(#FFFFFF,#FFFFFF);fontColor=light-dark(#000000,#000000);" vertex="1" parent="1">
          <mxGeometry x="470" y="490" width="120" height="60" as="geometry" />
        </mxCell>
        <mxCell id="7dJI4Exapxsd02uyXUpT-68" style="edgeStyle=orthogonalEdgeStyle;rounded=0;orthogonalLoop=1;jettySize=auto;html=1;entryX=0.5;entryY=0;entryDx=0;entryDy=0;" edge="1" parent="1" source="7dJI4Exapxsd02uyXUpT-25" target="7dJI4Exapxsd02uyXUpT-65">
          <mxGeometry relative="1" as="geometry" />
        </mxCell>
        <mxCell id="7dJI4Exapxsd02uyXUpT-25" value="nilaiB = Good Job" style="rounded=0;whiteSpace=wrap;html=1;fillColor=light-dark(#FFFFFF,#FFFFFF);fontColor=light-dark(#000000,#000000);" vertex="1" parent="1">
          <mxGeometry x="650" y="490" width="120" height="60" as="geometry" />
        </mxCell>
        <mxCell id="7dJI4Exapxsd02uyXUpT-69" style="edgeStyle=orthogonalEdgeStyle;rounded=0;orthogonalLoop=1;jettySize=auto;html=1;entryX=1;entryY=0.5;entryDx=0;entryDy=0;" edge="1" parent="1" source="7dJI4Exapxsd02uyXUpT-26" target="7dJI4Exapxsd02uyXUpT-65">
          <mxGeometry relative="1" as="geometry">
            <Array as="points">
              <mxPoint x="880" y="670" />
            </Array>
          </mxGeometry>
        </mxCell>
        <mxCell id="7dJI4Exapxsd02uyXUpT-26" value="nilaiA = Excellent" style="rounded=0;whiteSpace=wrap;html=1;fillColor=light-dark(#FFFFFF,#FFFFFF);fontColor=light-dark(#000000,#000000);" vertex="1" parent="1">
          <mxGeometry x="820" y="490" width="120" height="60" as="geometry" />
        </mxCell>
        <mxCell id="7dJI4Exapxsd02uyXUpT-57" style="edgeStyle=orthogonalEdgeStyle;rounded=0;orthogonalLoop=1;jettySize=auto;html=1;entryX=0.5;entryY=0;entryDx=0;entryDy=0;" edge="1" parent="1" source="7dJI4Exapxsd02uyXUpT-56" target="7dJI4Exapxsd02uyXUpT-26">
          <mxGeometry relative="1" as="geometry" />
        </mxCell>
        <mxCell id="7dJI4Exapxsd02uyXUpT-77" value="Iya" style="edgeLabel;html=1;align=center;verticalAlign=middle;resizable=0;points=[];" vertex="1" connectable="0" parent="7dJI4Exapxsd02uyXUpT-57">
          <mxGeometry x="-0.3579" y="-4" relative="1" as="geometry">
            <mxPoint as="offset" />
          </mxGeometry>
        </mxCell>
        <mxCell id="7dJI4Exapxsd02uyXUpT-62" style="edgeStyle=orthogonalEdgeStyle;rounded=0;orthogonalLoop=1;jettySize=auto;html=1;entryX=0.5;entryY=1;entryDx=0;entryDy=0;" edge="1" parent="1" source="7dJI4Exapxsd02uyXUpT-56" target="7dJI4Exapxsd02uyXUpT-59">
          <mxGeometry relative="1" as="geometry" />
        </mxCell>
        <mxCell id="7dJI4Exapxsd02uyXUpT-76" value="Tidak" style="edgeLabel;html=1;align=center;verticalAlign=middle;resizable=0;points=[];" vertex="1" connectable="0" parent="7dJI4Exapxsd02uyXUpT-62">
          <mxGeometry x="-0.1368" y="-4" relative="1" as="geometry">
            <mxPoint as="offset" />
          </mxGeometry>
        </mxCell>
        <mxCell id="7dJI4Exapxsd02uyXUpT-56" value="85 &amp;lt;= x &amp;lt; 100" style="rhombus;whiteSpace=wrap;html=1;fillColor=light-dark(#FFFFFF,#FFFFFF);fontColor=light-dark(#000000,#0F0F0F);" vertex="1" parent="1">
          <mxGeometry x="830" y="310" width="100" height="100" as="geometry" />
        </mxCell>
        <mxCell id="7dJI4Exapxsd02uyXUpT-61" style="edgeStyle=orthogonalEdgeStyle;rounded=0;orthogonalLoop=1;jettySize=auto;html=1;entryX=1;entryY=0.5;entryDx=0;entryDy=0;" edge="1" parent="1" source="7dJI4Exapxsd02uyXUpT-59" target="7dJI4Exapxsd02uyXUpT-6">
          <mxGeometry relative="1" as="geometry" />
        </mxCell>
        <mxCell id="7dJI4Exapxsd02uyXUpT-59" value="inputSalah = error, masukan ulang" style="shape=parallelogram;perimeter=parallelogramPerimeter;whiteSpace=wrap;html=1;fixedSize=1;fillColor=light-dark(#FFFFFF,#FFFFFF);fontColor=light-dark(#000000,#000000);" vertex="1" parent="1">
          <mxGeometry x="805" y="170" width="150" height="80" as="geometry" />
        </mxCell>
        <mxCell id="7dJI4Exapxsd02uyXUpT-64" style="edgeStyle=orthogonalEdgeStyle;rounded=0;orthogonalLoop=1;jettySize=auto;html=1;" edge="1" parent="1" source="7dJI4Exapxsd02uyXUpT-63" target="7dJI4Exapxsd02uyXUpT-6">
          <mxGeometry relative="1" as="geometry" />
        </mxCell>
        <mxCell id="7dJI4Exapxsd02uyXUpT-63" value="Mulai" style="rounded=1;whiteSpace=wrap;html=1;fillColor=light-dark(#FFFFFF,#F9F9F9);fontColor=light-dark(#000000,#0A0A0A);" vertex="1" parent="1">
          <mxGeometry x="300" y="30" width="120" height="60" as="geometry" />
        </mxCell>
        <mxCell id="7dJI4Exapxsd02uyXUpT-65" value="Selesai" style="rounded=1;whiteSpace=wrap;html=1;fillColor=light-dark(#FFFFFF,#F9F9F9);fontColor=light-dark(#000000,#0A0A0A);" vertex="1" parent="1">
          <mxGeometry x="570" y="640" width="120" height="60" as="geometry" />
        </mxCell>
      </root>
    </mxGraphModel>
  </diagram>
</mxfile>
